<?xml version="1.0" encoding="UTF-8"?>
<svg width="198px" height="49px" viewBox="0 0 198 49" version="1.1" xmlns="http://www.w3.org/2000/svg" xmlns:xlink="http://www.w3.org/1999/xlink">
    <!-- Generator: Sketch 45.2 (43514) - http://www.bohemiancoding.com/sketch -->
    <title>logo</title>
    <desc>Created with Sketch.</desc>
    <defs></defs>
    <g id="Page-1" stroke="none" stroke-width="1" fill="none" fill-rule="evenodd">
        <g id="logo">
            <path d="M0.875,38 L0.875,14.140625 L2.6328125,14.140625 L2.6328125,38 L0.875,38 Z M0.640625,6.0546875 C0.640625,5.27343359 1.01562125,4.8828125 1.765625,4.8828125 C2.1250018,4.8828125 2.4101552,4.98046777 2.62109375,5.17578125 C2.8320323,5.37109473 2.9375,5.66406055 2.9375,6.0546875 C2.9375,6.35156398 2.83984473,6.60937391 2.64453125,6.828125 C2.44921777,7.04687609 2.15625195,7.15625 1.765625,7.15625 C1.4062482,7.15625 1.12890723,7.04687609 0.93359375,6.828125 C0.738280273,6.60937391 0.640625,6.35156398 0.640625,6.0546875 Z M14.28125,38 L12.640625,38 L12.640625,18.2890625 C12.640625,17.4921835 12.4453145,16.8632836 12.0546875,16.4023438 C11.6640605,15.9414039 11.0937537,15.7109375 10.34375,15.7109375 L7.9765625,15.7109375 L7.9765625,38 L6.21875,38 L6.21875,14.140625 L10.2734375,14.140625 C10.976566,14.140625 11.6015598,14.2617175 12.1484375,14.5039062 C12.6953152,14.746095 13.1328109,15.0703105 13.4609375,15.4765625 C13.8046892,15.0859355 14.2539035,14.7656262 14.8085938,14.515625 C15.363284,14.2656238 15.9843716,14.140625 16.671875,14.140625 L20.75,14.140625 L20.75,38 L18.9921875,38 L18.9921875,15.7109375 L16.6015625,15.7109375 C15.8515588,15.7109375 15.2773457,15.9414039 14.8789062,16.4023438 C14.4804668,16.8632836 14.28125,17.4921835 14.28125,18.2890625 L14.28125,38 Z M27.6171875,36.4296875 C28.3671913,36.4296875 28.9414043,36.17969 29.3398438,35.6796875 C29.7382832,35.179685 29.9375,34.5703161 29.9375,33.8515625 L29.9375,25.578125 L27.6171875,25.578125 C26.8828088,25.578125 26.3164082,25.8203101 25.9179688,26.3046875 C25.5195293,26.7890649 25.3203125,27.3984338 25.3203125,28.1328125 L25.3203125,36.4296875 L27.6171875,36.4296875 Z M23.5625,38 L23.5625,28.296875 C23.5625,27.6718719 23.6484366,27.0976589 23.8203125,26.5742188 C23.9921884,26.0507786 24.2499983,25.5976582 24.59375,25.2148438 C24.9375017,24.8320293 25.3632787,24.5351573 25.8710938,24.3242188 C26.3789088,24.1132802 26.9609342,24.0078125 27.6171875,24.0078125 L29.9375,24.0078125 L29.9375,17.796875 C29.9375,17.0781214 29.7382832,16.4726587 29.3398438,15.9804687 C28.9414043,15.4882788 28.3671913,15.2421875 27.6171875,15.2421875 C26.8828088,15.2421875 26.3164082,15.5234347 25.9179688,16.0859375 C25.5195293,16.6484403 25.3203125,17.3359334 25.3203125,18.1484375 L23.5859375,18.40625 C23.5859375,17.7343716 23.6718741,17.1093779 23.84375,16.53125 C24.0156259,15.9531221 24.2695296,15.4531271 24.6054688,15.03125 C24.9414079,14.6093729 25.3632787,14.277345 25.8710938,14.0351562 C26.3789088,13.7929675 26.9609342,13.671875 27.6171875,13.671875 C28.2890659,13.671875 28.8789037,13.7812489 29.3867188,14 C29.8945338,14.2187511 30.3203108,14.5195293 30.6640625,14.9023437 C31.0078142,15.2851582 31.2656241,15.7382786 31.4375,16.2617188 C31.6093759,16.7851589 31.6953125,17.3515595 31.6953125,17.9609375 L31.6953125,33.7109375 C31.6953125,34.3359406 31.6093759,34.9101536 31.4375,35.4335938 C31.2656241,35.9570339 31.0078142,36.4101543 30.6640625,36.7929688 C30.3203108,37.1757832 29.8945338,37.4726552 29.3867188,37.6835938 C28.8789037,37.8945323 28.2890659,38 27.6171875,38 L23.5625,38 Z M41,38 L38.703125,38 C38.0312466,38 37.4414088,37.8906261 36.9335938,37.671875 C36.4257787,37.4531239 36.0000017,37.1523457 35.65625,36.7695312 C35.3124983,36.3867168 35.0546884,35.9335964 34.8828125,35.4101562 C34.7109366,34.8867161 34.625,34.3203155 34.625,33.7109375 L34.625,14.140625 L38.703125,14.140625 C39.3593783,14.140625 39.9414037,14.2460927 40.4492188,14.4570312 C40.9570338,14.6679698 41.3828108,14.9648418 41.7265625,15.3476562 C42.0703142,15.7304707 42.3281241,16.1835911 42.5,16.7070312 C42.6718759,17.2304714 42.7578125,17.796872 42.7578125,18.40625 L42.7578125,44.5859375 C42.7578125,45.1953155 42.6718759,45.7617161 42.5,46.2851562 C42.3281241,46.8085964 42.0703142,47.2617168 41.7265625,47.6445312 C41.3828108,48.0273457 40.9570338,48.3281239 40.4492188,48.546875 C39.9414037,48.7656261 39.3515659,48.875 38.6796875,48.875 C38.0234342,48.875 37.4414088,48.7539075 36.9335938,48.5117188 C36.4257787,48.26953 36.0039079,47.9375021 35.6679688,47.515625 C35.3320296,47.0937479 35.0781259,46.5937529 34.90625,46.015625 C34.7343741,45.4374971 34.6484375,44.8125034 34.6484375,44.140625 L36.3828125,44.3984375 C36.3828125,45.2109416 36.5820293,45.8984347 36.9804688,46.4609375 C37.3789082,47.0234403 37.9453088,47.3046875 38.6796875,47.3046875 C39.4296912,47.3046875 40.0039043,47.0585962 40.4023438,46.5664062 C40.8007832,46.0742163 41,45.4687536 41,44.75 L41,38 Z M36.3828125,33.875 C36.3828125,34.5937536 36.5820293,35.1992163 36.9804688,35.6914062 C37.3789082,36.1835962 37.9531212,36.4296875 38.703125,36.4296875 L41,36.4296875 L41,18.2890625 C41,17.5703089 40.8007832,16.96094 40.4023438,16.4609375 C40.0039043,15.960935 39.4375037,15.7109375 38.703125,15.7109375 L36.3828125,15.7109375 L36.3828125,33.875 Z M46.2734375,38 L46.2734375,14.140625 L48.03125,14.140625 L48.03125,38 L46.2734375,38 Z M46.0390625,6.0546875 C46.0390625,5.27343359 46.4140588,4.8828125 47.1640625,4.8828125 C47.5234393,4.8828125 47.8085927,4.98046777 48.0195312,5.17578125 C48.2304698,5.37109473 48.3359375,5.66406055 48.3359375,6.0546875 C48.3359375,6.35156398 48.2382822,6.60937391 48.0429688,6.828125 C47.8476553,7.04687609 47.5546895,7.15625 47.1640625,7.15625 C46.8046857,7.15625 46.5273447,7.04687609 46.3320312,6.828125 C46.1367178,6.60937391 46.0390625,6.35156398 46.0390625,6.0546875 Z M59.75,38 L57.9921875,38 L57.9921875,18.2890625 C57.9921875,17.5703089 57.7929707,16.96094 57.3945312,16.4609375 C56.9960918,15.960935 56.4296912,15.7109375 55.6953125,15.7109375 L53.375,15.7109375 L53.375,38 L51.6171875,38 L51.6171875,14.140625 L55.6953125,14.140625 C56.3515658,14.140625 56.9335912,14.2460927 57.4414062,14.4570312 C57.9492213,14.6679698 58.3749983,14.9648418 58.71875,15.3476562 C59.0625017,15.7304707 59.3203116,16.1835911 59.4921875,16.7070312 C59.6640634,17.2304714 59.75,17.796872 59.75,18.40625 L59.75,38 Z M66.7578125,15.7109375 C66.0078088,15.7109375 65.4335957,15.960935 65.0351562,16.4609375 C64.6367168,16.96094 64.4375,17.5703089 64.4375,18.2890625 L64.4375,26.5625 L66.7578125,26.5625 C67.4921912,26.5625 68.0585918,26.3203149 68.4570312,25.8359375 C68.8554707,25.3515601 69.0546875,24.7421912 69.0546875,24.0078125 L69.0546875,15.7109375 L66.7578125,15.7109375 Z M70.8125,14.140625 L70.8125,23.84375 C70.8125,24.4687531 70.7265634,25.0429661 70.5546875,25.5664062 C70.3828116,26.0898464 70.1250017,26.5429668 69.78125,26.9257812 C69.4374983,27.3085957 69.0117213,27.6054677 68.5039062,27.8164062 C67.9960912,28.0273448 67.4140658,28.1328125 66.7578125,28.1328125 L64.4375,28.1328125 L64.4375,34.34375 C64.4375,35.0625036 64.6367168,35.6679663 65.0351562,36.1601562 C65.4335957,36.6523462 66.0078088,36.8984375 66.7578125,36.8984375 C67.4921912,36.8984375 68.0585918,36.6171903 68.4570312,36.0546875 C68.8554707,35.4921847 69.0546875,34.8046916 69.0546875,33.9921875 L70.7890625,33.734375 C70.7890625,34.4062534 70.7031259,35.0312471 70.53125,35.609375 C70.3593741,36.1875029 70.1054704,36.6874979 69.7695312,37.109375 C69.4335921,37.5312521 69.0117213,37.86328 68.5039062,38.1054688 C67.9960912,38.3476575 67.4140658,38.46875 66.7578125,38.46875 C66.0859341,38.46875 65.4960963,38.3593761 64.9882812,38.140625 C64.4804662,37.9218739 64.0546892,37.6210957 63.7109375,37.2382812 C63.3671858,36.8554668 63.1093759,36.4023464 62.9375,35.8789062 C62.7656241,35.3554661 62.6796875,34.7890655 62.6796875,34.1796875 L62.6796875,18.4296875 C62.6796875,17.8046844 62.7656241,17.2304714 62.9375,16.7070312 C63.1093759,16.1835911 63.3671858,15.7304707 63.7109375,15.3476562 C64.0546892,14.9648418 64.4804662,14.6679698 64.9882812,14.4570312 C65.4960963,14.2460927 66.0859341,14.140625 66.7578125,14.140625 L70.8125,14.140625 Z M81.640625,34.1796875 C81.640625,34.7890655 81.5546884,35.3554661 81.3828125,35.8789062 C81.2109366,36.4023464 80.9531267,36.8554668 80.609375,37.2382812 C80.2656233,37.6210957 79.8398463,37.9218739 79.3320312,38.140625 C78.8242162,38.3593761 78.2421908,38.46875 77.5859375,38.46875 C76.9140591,38.46875 76.3242213,38.3593761 75.8164062,38.140625 C75.3085912,37.9218739 74.8828142,37.6210957 74.5390625,37.2382812 C74.1953108,36.8554668 73.9375009,36.4023464 73.765625,35.8789062 C73.5937491,35.3554661 73.5078125,34.7890655 73.5078125,34.1796875 L73.5078125,14.140625 L77.4921875,14.140625 C78.0859405,14.140625 78.5624982,14.1835933 78.921875,14.2695312 C79.2812518,14.3554692 79.6015611,14.4765617 79.8828125,14.6328125 L79.8828125,1.34375 L81.640625,1.34375 L81.640625,34.1796875 Z M79.8828125,17.9375 C79.8828125,17.8437495 79.8710939,17.6718763 79.8476562,17.421875 C79.8242186,17.1718737 79.7421882,16.9218762 79.6015625,16.671875 C79.4609368,16.4218738 79.2343766,16.1992197 78.921875,16.0039062 C78.6093734,15.8085928 78.1640654,15.7109375 77.5859375,15.7109375 L75.265625,15.7109375 L75.265625,34.34375 C75.265625,35.0625036 75.4648418,35.6679663 75.8632812,36.1601562 C76.2617207,36.6523462 76.8359338,36.8984375 77.5859375,36.8984375 C78.3203162,36.8984375 78.8867168,36.6523462 79.2851562,36.1601562 C79.6835957,35.6679663 79.8828125,35.0625036 79.8828125,34.34375 L79.8828125,17.9375 Z" id="imagined" fill="#4A4A4A"></path>
            <path d="M84.1015625,32.5859375 L85.859375,32.5859375 L85.859375,34.34375 C85.859375,35.0625036 86.0585918,35.6679663 86.4570312,36.1601562 C86.8554707,36.6523462 87.4296837,36.8984375 88.1796875,36.8984375 C88.9140662,36.8984375 89.4804668,36.6523462 89.8789062,36.1601562 C90.2773457,35.6679663 90.4765625,35.0625036 90.4765625,34.34375 L90.4765625,31.390625 C90.4765625,30.8749974 90.3945321,30.3945335 90.2304688,29.9492188 C90.0664054,29.503904 89.8476576,29.0742208 89.5742188,28.6601562 C89.3007799,28.2460917 88.988283,27.8515644 88.6367188,27.4765625 C88.2851545,27.1015606 87.9296893,26.7265644 87.5703125,26.3515625 C87.1328103,25.9140603 86.7070333,25.4687523 86.2929688,25.015625 C85.8789042,24.5624977 85.5078141,24.0820338 85.1796875,23.5742188 C84.8515609,23.0664037 84.5898447,22.5312528 84.3945312,21.96875 C84.1992178,21.4062472 84.1015625,20.7968783 84.1015625,20.140625 L84.1015625,17.9609375 C84.1015625,17.3359344 84.1874991,16.7617214 84.359375,16.2382812 C84.5312509,15.7148411 84.7890608,15.2617207 85.1328125,14.8789062 C85.4765642,14.4960918 85.9023412,14.1992198 86.4101562,13.9882812 C86.9179713,13.7773427 87.5078091,13.671875 88.1796875,13.671875 C88.8359408,13.671875 89.4179662,13.7773427 89.9257812,13.9882812 C90.4335963,14.1992198 90.8593733,14.4960918 91.203125,14.8789062 C91.5468767,15.2617207 91.8046866,15.7148411 91.9765625,16.2382812 C92.1484384,16.7617214 92.234375,17.3359344 92.234375,17.9609375 L92.234375,19.8828125 L90.4765625,19.8828125 L90.4765625,17.8203125 C90.4765625,17.1015589 90.2773457,16.49219 89.8789062,15.9921875 C89.4804668,15.492185 88.9140662,15.2421875 88.1796875,15.2421875 C87.4296837,15.2421875 86.8554707,15.492185 86.4570312,15.9921875 C86.0585918,16.49219 85.859375,17.1015589 85.859375,17.8203125 L85.859375,20.140625 C85.859375,20.6718777 85.9453116,21.1679664 86.1171875,21.6289062 C86.2890634,22.0898461 86.5117174,22.5234355 86.7851562,22.9296875 C87.0585951,23.3359395 87.371092,23.7304668 87.7226562,24.1132812 C88.0742205,24.4960957 88.4296857,24.8749981 88.7890625,25.25 C89.2265647,25.7031273 89.6523417,26.1562477 90.0664062,26.609375 C90.4804708,27.0625023 90.8476546,27.53906 91.1679688,28.0390625 C91.4882829,28.539065 91.7460928,29.0664035 91.9414062,29.6210938 C92.1367197,30.175784 92.234375,30.7656219 92.234375,31.390625 L92.234375,34.1796875 C92.234375,34.7890655 92.1484384,35.3554661 91.9765625,35.8789062 C91.8046866,36.4023464 91.5468767,36.8554668 91.203125,37.2382812 C90.8593733,37.6210957 90.4335963,37.9218739 89.9257812,38.140625 C89.4179662,38.3593761 88.8359408,38.46875 88.1796875,38.46875 C87.5078091,38.46875 86.9179713,38.3593761 86.4101562,38.140625 C85.9023412,37.9218739 85.4765642,37.6210957 85.1328125,37.2382812 C84.7890608,36.8554668 84.5312509,36.4023464 84.359375,35.8789062 C84.1874991,35.3554661 84.1015625,34.7890655 84.1015625,34.1796875 L84.1015625,32.5859375 Z M98.3984375,36.4296875 C99.1484413,36.4296875 99.7226543,36.17969 100.121094,35.6796875 C100.519533,35.179685 100.71875,34.5703161 100.71875,33.8515625 L100.71875,25.578125 L98.3984375,25.578125 C97.6640588,25.578125 97.0976582,25.8203101 96.6992188,26.3046875 C96.3007793,26.7890649 96.1015625,27.3984338 96.1015625,28.1328125 L96.1015625,36.4296875 L98.3984375,36.4296875 Z M94.34375,38 L94.34375,28.296875 C94.34375,27.6718719 94.4296866,27.0976589 94.6015625,26.5742188 C94.7734384,26.0507786 95.0312483,25.5976582 95.375,25.2148438 C95.7187517,24.8320293 96.1445287,24.5351573 96.6523438,24.3242188 C97.1601588,24.1132802 97.7421842,24.0078125 98.3984375,24.0078125 L100.71875,24.0078125 L100.71875,17.796875 C100.71875,17.0781214 100.519533,16.4726587 100.121094,15.9804688 C99.7226543,15.4882788 99.1484413,15.2421875 98.3984375,15.2421875 C97.6640588,15.2421875 97.0976582,15.5234347 96.6992188,16.0859375 C96.3007793,16.6484403 96.1015625,17.3359334 96.1015625,18.1484375 L94.3671875,18.40625 C94.3671875,17.7343716 94.4531241,17.1093779 94.625,16.53125 C94.7968759,15.9531221 95.0507796,15.4531271 95.3867188,15.03125 C95.7226579,14.6093729 96.1445287,14.277345 96.6523438,14.0351562 C97.1601588,13.7929675 97.7421842,13.671875 98.3984375,13.671875 C99.0703159,13.671875 99.6601537,13.7812489 100.167969,14 C100.675784,14.2187511 101.101561,14.5195293 101.445312,14.9023438 C101.789064,15.2851582 102.046874,15.7382786 102.21875,16.2617188 C102.390626,16.7851589 102.476562,17.3515595 102.476562,17.9609375 L102.476562,33.7109375 C102.476562,34.3359406 102.390626,34.9101536 102.21875,35.4335938 C102.046874,35.9570339 101.789064,36.4101543 101.445312,36.7929688 C101.101561,37.1757832 100.675784,37.4726552 100.167969,37.6835938 C99.6601537,37.8945323 99.0703159,38 98.3984375,38 L94.34375,38 Z M113.65625,38 L111.898438,38 L111.898438,18.2890625 C111.898438,17.5703089 111.699221,16.96094 111.300781,16.4609375 C110.902342,15.960935 110.335941,15.7109375 109.601562,15.7109375 L107.28125,15.7109375 L107.28125,38 L105.523438,38 L105.523438,14.140625 L109.601562,14.140625 C110.257816,14.140625 110.839841,14.2460927 111.347656,14.4570312 C111.855471,14.6679698 112.281248,14.9648418 112.625,15.3476562 C112.968752,15.7304707 113.226562,16.1835911 113.398438,16.7070312 C113.570313,17.2304714 113.65625,17.796872 113.65625,18.40625 L113.65625,38 Z M117.148438,48.3828125 L117.148438,15.7109375 L115.179688,15.7109375 L115.179688,14.140625 L117.148438,14.140625 L117.148438,5.1640625 C117.148438,4.53905938 117.234374,3.96484637 117.40625,3.44140625 C117.578126,2.91796613 117.83203,2.46484566 118.167969,2.08203125 C118.503908,1.69921684 118.925779,1.4023448 119.433594,1.19140625 C119.941409,0.980467695 120.531247,0.875 121.203125,0.875 C121.500001,0.875 121.824217,0.910155898 122.175781,0.98046875 C122.527346,1.0507816 122.828124,1.1562493 123.078125,1.296875 L123.078125,2.65625 C122.828124,2.59374969 122.578126,2.54296895 122.328125,2.50390625 C122.078124,2.46484355 121.796877,2.4453125 121.484375,2.4453125 C120.734371,2.4453125 120.11719,2.67577895 119.632812,3.13671875 C119.148435,3.59765855 118.90625,4.22655852 118.90625,5.0234375 L118.90625,14.140625 L122.375,14.140625 L122.375,15.7109375 L118.90625,15.7109375 L118.90625,48.3828125 L117.148438,48.3828125 Z M128.703125,15.5703125 C128.468749,15.5078122 128.187502,15.4765625 127.859375,15.4765625 C127.109371,15.4765625 126.535158,15.72656 126.136719,16.2265625 C125.738279,16.726565 125.539062,17.3359339 125.539062,18.0546875 L125.539062,38 L123.78125,38 L123.78125,18.1953125 C123.78125,17.5703094 123.867187,16.9960964 124.039062,16.4726562 C124.210938,15.9492161 124.468748,15.4960957 124.8125,15.1132812 C125.156252,14.7304668 125.582029,14.4335948 126.089844,14.2226562 C126.597659,14.0117177 127.187497,13.90625 127.859375,13.90625 C128.140626,13.90625 128.414061,13.9257811 128.679688,13.9648437 C128.945314,14.0039064 129.187499,14.0624996 129.40625,14.140625 L128.703125,15.5703125 Z M134.328125,36.4296875 C135.078129,36.4296875 135.652342,36.17969 136.050781,35.6796875 C136.449221,35.179685 136.648438,34.5703161 136.648438,33.8515625 L136.648438,25.578125 L134.328125,25.578125 C133.593746,25.578125 133.027346,25.8203101 132.628906,26.3046875 C132.230467,26.7890649 132.03125,27.3984338 132.03125,28.1328125 L132.03125,36.4296875 L134.328125,36.4296875 Z M130.273438,38 L130.273438,28.296875 C130.273438,27.6718719 130.359374,27.0976589 130.53125,26.5742188 C130.703126,26.0507786 130.960936,25.5976582 131.304688,25.2148438 C131.648439,24.8320293 132.074216,24.5351573 132.582031,24.3242188 C133.089846,24.1132802 133.671872,24.0078125 134.328125,24.0078125 L136.648438,24.0078125 L136.648438,17.796875 C136.648438,17.0781214 136.449221,16.4726587 136.050781,15.9804688 C135.652342,15.4882788 135.078129,15.2421875 134.328125,15.2421875 C133.593746,15.2421875 133.027346,15.5234347 132.628906,16.0859375 C132.230467,16.6484403 132.03125,17.3359334 132.03125,18.1484375 L130.296875,18.40625 C130.296875,17.7343716 130.382812,17.1093779 130.554688,16.53125 C130.726563,15.9531221 130.980467,15.4531271 131.316406,15.03125 C131.652345,14.6093729 132.074216,14.277345 132.582031,14.0351562 C133.089846,13.7929675 133.671872,13.671875 134.328125,13.671875 C135.000003,13.671875 135.589841,13.7812489 136.097656,14 C136.605471,14.2187511 137.031248,14.5195293 137.375,14.9023438 C137.718752,15.2851582 137.976562,15.7382786 138.148438,16.2617188 C138.320313,16.7851589 138.40625,17.3515595 138.40625,17.9609375 L138.40625,33.7109375 C138.40625,34.3359406 138.320313,34.9101536 138.148438,35.4335938 C137.976562,35.9570339 137.718752,36.4101543 137.375,36.7929688 C137.031248,37.1757832 136.605471,37.4726552 136.097656,37.6835938 C135.589841,37.8945323 135.000003,38 134.328125,38 L130.273438,38 Z M149.585938,38 L147.828125,38 L147.828125,18.2890625 C147.828125,17.5703089 147.628908,16.96094 147.230469,16.4609375 C146.832029,15.960935 146.265629,15.7109375 145.53125,15.7109375 L143.210938,15.7109375 L143.210938,38 L141.453125,38 L141.453125,14.140625 L145.53125,14.140625 C146.187503,14.140625 146.769529,14.2460927 147.277344,14.4570312 C147.785159,14.6679698 148.210936,14.9648418 148.554688,15.3476562 C148.898439,15.7304707 149.156249,16.1835911 149.328125,16.7070312 C149.500001,17.2304714 149.585938,17.796872 149.585938,18.40625 L149.585938,38 Z M154.273438,34.25 C154.273438,34.9687536 154.47656,35.5781225 154.882812,36.078125 C155.289065,36.5781275 155.867184,36.828125 156.617188,36.828125 C157.351566,36.828125 157.917967,36.5429716 158.316406,35.9726562 C158.714846,35.4023409 158.914062,34.7109416 158.914062,33.8984375 L160.648438,33.6640625 C160.648438,34.3515659 160.562501,34.9843721 160.390625,35.5625 C160.218749,36.1406279 159.960939,36.6406229 159.617188,37.0625 C159.273436,37.4843771 158.847659,37.8124988 158.339844,38.046875 C157.832029,38.2812512 157.242191,38.3984375 156.570312,38.3984375 C155.898434,38.3984375 155.308596,38.2929698 154.800781,38.0820312 C154.292966,37.8710927 153.871095,37.5742207 153.535156,37.1914062 C153.199217,36.8085918 152.945313,36.3554714 152.773438,35.8320312 C152.601562,35.3085911 152.515625,34.7343781 152.515625,34.109375 L152.515625,18.40625 C152.515625,17.796872 152.601562,17.2304714 152.773438,16.7070312 C152.945313,16.1835911 153.203123,15.7304707 153.546875,15.3476562 C153.890627,14.9648418 154.316404,14.6679698 154.824219,14.4570312 C155.332034,14.2460927 155.921872,14.140625 156.59375,14.140625 L160.648438,14.140625 L160.648438,20.796875 L158.890625,20.796875 L158.890625,15.7109375 L156.59375,15.7109375 C155.843746,15.7109375 155.269533,15.960935 154.871094,16.4609375 C154.472654,16.96094 154.273438,17.5703089 154.273438,18.2890625 L154.273438,34.25 Z M163.460938,38 L163.460938,14.140625 L165.21875,14.140625 L165.21875,38 L163.460938,38 Z M163.226562,6.0546875 C163.226562,5.27343359 163.601559,4.8828125 164.351562,4.8828125 C164.710939,4.8828125 164.996093,4.98046777 165.207031,5.17578125 C165.41797,5.37109473 165.523438,5.66406055 165.523438,6.0546875 C165.523438,6.35156398 165.425782,6.60937391 165.230469,6.828125 C165.035155,7.04687609 164.742189,7.15625 164.351562,7.15625 C163.992186,7.15625 163.714845,7.04687609 163.519531,6.828125 C163.324218,6.60937391 163.226562,6.35156398 163.226562,6.0546875 Z M168.101562,32.5859375 L169.859375,32.5859375 L169.859375,34.34375 C169.859375,35.0625036 170.058592,35.6679663 170.457031,36.1601562 C170.855471,36.6523462 171.429684,36.8984375 172.179688,36.8984375 C172.914066,36.8984375 173.480467,36.6523462 173.878906,36.1601562 C174.277346,35.6679663 174.476562,35.0625036 174.476562,34.34375 L174.476562,31.390625 C174.476562,30.8749974 174.394532,30.3945335 174.230469,29.9492188 C174.066405,29.503904 173.847658,29.0742208 173.574219,28.6601562 C173.30078,28.2460917 172.988283,27.8515644 172.636719,27.4765625 C172.285154,27.1015606 171.929689,26.7265644 171.570312,26.3515625 C171.13281,25.9140603 170.707033,25.4687523 170.292969,25.015625 C169.878904,24.5624977 169.507814,24.0820338 169.179688,23.5742188 C168.851561,23.0664037 168.589845,22.5312528 168.394531,21.96875 C168.199218,21.4062472 168.101562,20.7968783 168.101562,20.140625 L168.101562,17.9609375 C168.101562,17.3359344 168.187499,16.7617214 168.359375,16.2382812 C168.531251,15.7148411 168.789061,15.2617207 169.132812,14.8789062 C169.476564,14.4960918 169.902341,14.1992198 170.410156,13.9882812 C170.917971,13.7773427 171.507809,13.671875 172.179688,13.671875 C172.835941,13.671875 173.417966,13.7773427 173.925781,13.9882812 C174.433596,14.1992198 174.859373,14.4960918 175.203125,14.8789062 C175.546877,15.2617207 175.804687,15.7148411 175.976562,16.2382812 C176.148438,16.7617214 176.234375,17.3359344 176.234375,17.9609375 L176.234375,19.8828125 L174.476562,19.8828125 L174.476562,17.8203125 C174.476562,17.1015589 174.277346,16.49219 173.878906,15.9921875 C173.480467,15.492185 172.914066,15.2421875 172.179688,15.2421875 C171.429684,15.2421875 170.855471,15.492185 170.457031,15.9921875 C170.058592,16.49219 169.859375,17.1015589 169.859375,17.8203125 L169.859375,20.140625 C169.859375,20.6718777 169.945312,21.1679664 170.117188,21.6289062 C170.289063,22.0898461 170.511717,22.5234355 170.785156,22.9296875 C171.058595,23.3359395 171.371092,23.7304668 171.722656,24.1132812 C172.074221,24.4960957 172.429686,24.8749981 172.789062,25.25 C173.226565,25.7031273 173.652342,26.1562477 174.066406,26.609375 C174.480471,27.0625023 174.847655,27.53906 175.167969,28.0390625 C175.488283,28.539065 175.746093,29.0664035 175.941406,29.6210938 C176.13672,30.175784 176.234375,30.7656219 176.234375,31.390625 L176.234375,34.1796875 C176.234375,34.7890655 176.148438,35.3554661 175.976562,35.8789062 C175.804687,36.4023464 175.546877,36.8554668 175.203125,37.2382812 C174.859373,37.6210957 174.433596,37.9218739 173.925781,38.140625 C173.417966,38.3593761 172.835941,38.46875 172.179688,38.46875 C171.507809,38.46875 170.917971,38.3593761 170.410156,38.140625 C169.902341,37.9218739 169.476564,37.6210957 169.132812,37.2382812 C168.789061,36.8554668 168.531251,36.4023464 168.359375,35.8789062 C168.187499,35.3554661 168.101562,34.7890655 168.101562,34.1796875 L168.101562,32.5859375 Z M180.335938,34.25 C180.335938,34.9687536 180.53906,35.5781225 180.945312,36.078125 C181.351565,36.5781275 181.929684,36.828125 182.679688,36.828125 C183.414066,36.828125 183.980467,36.5429716 184.378906,35.9726562 C184.777346,35.4023409 184.976562,34.7109416 184.976562,33.8984375 L186.710938,33.6640625 C186.710938,34.3515659 186.625001,34.9843721 186.453125,35.5625 C186.281249,36.1406279 186.023439,36.6406229 185.679688,37.0625 C185.335936,37.4843771 184.910159,37.8124988 184.402344,38.046875 C183.894529,38.2812512 183.304691,38.3984375 182.632812,38.3984375 C181.960934,38.3984375 181.371096,38.2929698 180.863281,38.0820312 C180.355466,37.8710927 179.933595,37.5742207 179.597656,37.1914062 C179.261717,36.8085918 179.007813,36.3554714 178.835938,35.8320312 C178.664062,35.3085911 178.578125,34.7343781 178.578125,34.109375 L178.578125,18.40625 C178.578125,17.796872 178.664062,17.2304714 178.835938,16.7070312 C179.007813,16.1835911 179.265623,15.7304707 179.609375,15.3476562 C179.953127,14.9648418 180.378904,14.6679698 180.886719,14.4570312 C181.394534,14.2460927 181.984372,14.140625 182.65625,14.140625 L186.710938,14.140625 L186.710938,20.796875 L184.953125,20.796875 L184.953125,15.7109375 L182.65625,15.7109375 C181.906246,15.7109375 181.332033,15.960935 180.933594,16.4609375 C180.535154,16.96094 180.335938,17.5703089 180.335938,18.2890625 L180.335938,34.25 Z M197.1875,33.734375 C197.1875,34.4218784 197.101563,35.0546846 196.929688,35.6328125 C196.757812,36.2109404 196.500002,36.7109354 196.15625,37.1328125 C195.812498,37.5546896 195.386721,37.8828113 194.878906,38.1171875 C194.371091,38.3515637 193.781253,38.46875 193.109375,38.46875 C192.437497,38.46875 191.847659,38.3632823 191.339844,38.1523438 C190.832029,37.9414052 190.410158,37.6445332 190.074219,37.2617188 C189.73828,36.8789043 189.484376,36.4257839 189.3125,35.9023438 C189.140624,35.3789036 189.054688,34.8046906 189.054688,34.1796875 L189.054688,17.9375 C189.054688,17.328122 189.140624,16.7617214 189.3125,16.2382812 C189.484376,15.7148411 189.742186,15.2617207 190.085938,14.8789062 C190.429689,14.4960918 190.855466,14.1992198 191.363281,13.9882812 C191.871096,13.7773427 192.460934,13.671875 193.132812,13.671875 L197.1875,13.671875 L197.1875,33.734375 Z M190.8125,34.3203125 C190.8125,35.0390661 191.011717,35.648435 191.410156,36.1484375 C191.808596,36.64844 192.382809,36.8984375 193.132812,36.8984375 C193.867191,36.8984375 194.433592,36.6132841 194.832031,36.0429688 C195.230471,35.4726534 195.429688,34.7812541 195.429688,33.96875 L195.429688,15.2421875 L193.132812,15.2421875 C192.382809,15.2421875 191.808596,15.492185 191.410156,15.9921875 C191.011717,16.49219 190.8125,17.1015589 190.8125,17.8203125 L190.8125,34.3203125 Z" id="sanfrancisco" fill="#D83A3A"></path>
        </g>
    </g>
</svg>